<?xml version="1.0" standalone="no"?>
<!DOCTYPE svg PUBLIC "-//W3C//DTD SVG 20010904//EN"
 "http://www.w3.org/TR/2001/REC-SVG-20010904/DTD/svg10.dtd">
<svg version="1.0" xmlns="http://www.w3.org/2000/svg"
 width="512.000000pt" height="512.000000pt" viewBox="0 0 512.000000 512.000000"
 preserveAspectRatio="xMidYMid meet">
<metadata>
Created by potrace 1.14, written by Peter Selinger 2001-2017
</metadata>
<g transform="translate(0.000000,512.000000) scale(0.100000,-0.100000)"
fill="#000000" stroke="none">
<path d="M1918 4345 c-2 -2 -106 -6 -233 -10 -126 -3 -268 -8 -315 -11 -47 -2
-127 -6 -178 -9 -52 -3 -122 -7 -155 -10 -34 -3 -87 -7 -117 -10 -165 -13
-328 -38 -394 -60 -191 -65 -353 -231 -414 -425 -102 -320 -140 -1312 -77
-2025 3 -38 8 -81 9 -95 2 -14 7 -52 11 -85 42 -364 142 -549 362 -672 67 -37
124 -57 208 -72 122 -21 141 -24 165 -26 14 -1 50 -5 80 -8 30 -4 93 -9 140
-13 47 -3 105 -8 130 -9 25 -2 110 -7 190 -10 80 -4 172 -8 205 -10 382 -22
1555 -22 2060 0 110 4 366 17 410 19 92 6 222 17 255 21 19 3 62 7 95 10 33 3
67 8 75 10 8 2 33 6 55 10 241 35 444 206 519 436 32 99 67 314 81 499 4 41 8
91 10 110 26 225 26 1146 0 1345 -2 17 -6 62 -10 101 -3 39 -7 80 -9 91 -2 11
-7 45 -10 77 -12 106 -47 271 -73 336 -91 230 -296 384 -551 415 -26 3 -56 7
-67 9 -20 4 -98 13 -185 21 -25 2 -85 7 -135 10 -49 3 -119 8 -154 10 -35 3
-125 7 -200 10 -75 3 -185 8 -246 11 -116 6 -1531 14 -1537 9z"/>
</g>
</svg>
